<?xml version="1.0" encoding="UTF-8" standalone="no"?>
<svg
   xmlns:dc="http://purl.org/dc/elements/1.1/"
   xmlns:cc="http://creativecommons.org/ns#"
   xmlns:rdf="http://www.w3.org/1999/02/22-rdf-syntax-ns#"
   xmlns:svg="http://www.w3.org/2000/svg"
   xmlns="http://www.w3.org/2000/svg"
   xmlns:sodipodi="http://sodipodi.sourceforge.net/DTD/sodipodi-0.dtd"
   xmlns:inkscape="http://www.inkscape.org/namespaces/inkscape"
   width="6.4171381mm"
   height="6.8957925mm"
   viewBox="0 0 6.4171386 6.8957926"
   version="1.1"
   id="svg8"
   inkscape:version="1.0.2 (e86c870879, 2021-01-15, custom)"
   sodipodi:docname="drawing.svg"
   inkscape:export-filename="C:\langbangbistro\image\logoiphone5.png"
   inkscape:export-xdpi="118.74452"
   inkscape:export-ydpi="118.74452">
  <defs
     id="defs2" />
  <sodipodi:namedview
     id="base"
     pagecolor="#ffffff"
     bordercolor="#666666"
     borderopacity="1.0"
     inkscape:pageopacity="0.0"
     inkscape:pageshadow="2"
     inkscape:zoom="7.2817481"
     inkscape:cx="20.976409"
     inkscape:cy="3.7212393"
     inkscape:document-units="mm"
     inkscape:current-layer="layer1"
     inkscape:document-rotation="0"
     showgrid="false"
     showborder="true"
     showguides="true"
     inkscape:guide-bbox="true"
     fit-margin-top="0"
     fit-margin-left="0"
     fit-margin-right="0"
     fit-margin-bottom="0"
     inkscape:window-width="1920"
     inkscape:window-height="1000"
     inkscape:window-x="-11"
     inkscape:window-y="-11"
     inkscape:window-maximized="1" />
  <metadata
     id="metadata5">
    <rdf:RDF>
      <cc:Work
         rdf:about="">
        <dc:format>image/svg+xml</dc:format>
        <dc:type
           rdf:resource="http://purl.org/dc/dcmitype/StillImage" />
        <dc:title />
      </cc:Work>
    </rdf:RDF>
  </metadata>
  <g
     inkscape:label="Layer 1"
     inkscape:groupmode="layer"
     id="layer1"
     transform="translate(-203.58866,-141.72593)">
    <path
       style="fill:#ff7f2a;fill-opacity:1;stroke-width:1"
       d="m 222.73141,144.75134 v 2.08979 h 1.72082 c 0.44077,0 0.76962,-0.0914 0.98651,-0.2744 0.22388,-0.18296 0.33589,-0.43975 0.33589,-0.7705 0,-0.33074 -0.11201,-0.58752 -0.33589,-0.77049 -0.21689,-0.18295 -0.54574,-0.2744 -0.98651,-0.2744 z"
       id="path1021" />
    <path
       style="fill:#ff7f2a;fill-opacity:1;stroke-width:1"
       d="m 222.73141,141.76392 v 2.04794 h 1.54254 c 0.88153,0 1.3224,-0.34163 1.3224,-1.02423 0,-0.6826 -0.44087,-1.02371 -1.3224,-1.02371 z"
       id="path1019" />
    <rect
       style="fill:none;fill-opacity:1;stroke-width:0.880098"
       id="rect936"
       width="10.977412"
       height="9.8128042"
       x="230.70818"
       y="141.85539" />
    <g
       id="g914"
       transform="matrix(0.07097443,0,0,0.08256519,233.97954,139.98092)"
       inkscape:export-filename="C:\xampp\htdocs\rapp\image\logopixel2.png"
       inkscape:export-xdpi="500"
       inkscape:export-ydpi="500">
      <path
         id="path908"
         style="fill:#000000;fill-opacity:1;stroke-width:1"
         d="m 38.085222,38.251775 v 34.671786 h 26.271781 c 15.012479,0 22.518521,-5.778659 22.518521,-17.335892 0,-11.557227 -7.506042,-17.335894 -22.518521,-17.335894 z m 0,50.577792 V 124.21604 H 67.39506 c 7.50624,0 13.106461,-1.54894 16.80001,-4.64675 3.812693,-3.09781 5.719029,-7.44686 5.719029,-13.04675 0,-5.59989 -1.906336,-9.94841 -5.719029,-13.046228 C 80.501521,90.378499 74.9013,88.829567 67.39506,88.829567 Z M -45.81307,21.809365 V 38.251771 H 0.11798024 V 21.809365 Z m 45.93105024,-3e-6 V 34.502741 100.1766 H 19.24084 V 21.809362 Z M -46.092154,22.702939 V 140.65853 h 19.123382 V 139.57281 124.21612 22.702939 Z M -26.96877,124.21612 v 16.44241 h 45.93105 v -16.44241 z" />
    </g>
    <g
       id="g1002"
       style="fill:#ff7f2a">
      <rect
         style="fill:#ff7f2a;fill-opacity:1;stroke-width:1"
         id="rect965"
         width="1.4139696"
         height="8.6396885"
         x="216.50285"
         y="140.81386" />
      <rect
         style="fill:#ff7f2a;fill-opacity:1;stroke-width:1"
         id="rect969"
         width="4.5973902"
         height="1.3575784"
         x="216.50285"
         y="149.45355" />
      <rect
         style="fill:#ff7f2a;fill-opacity:1;stroke-width:1"
         id="rect971"
         width="4.5973902"
         height="1.3575784"
         x="216.50285"
         y="140.81386" />
      <rect
         style="fill:#ff7f2a;fill-opacity:1;stroke-width:0.897976"
         id="rect973"
         width="1.4139696"
         height="6.9667039"
         x="219.68628"
         y="140.81386" />
    </g>
    <g
       id="g1031"
       style="fill:#ff7f2a;fill-opacity:1"
       transform="translate(-14.603763,-0.69707701)" />
    <path
       id="rect1060"
       style="fill:#ffffff;fill-opacity:1;stroke-width:0.528094"
       d="m 205.80936,142.10047 h 0.83154 v 4.09707 h -0.83154 z m -1.87216,0 h 2.70369 v 0.79838 h -2.70369 z m 0,5.08095 h 2.70369 v 0.79838 h -2.70369 z m 0,-5.08095 h 0.83155 v 5.08095 h -0.83155 z m 3.66297,0.55873 v 1.20437 h 0.90716 c 0.51842,0 0.77769,-0.20091 0.77769,-0.60234 0,-0.40144 -0.25927,-0.60203 -0.77769,-0.60203 z m 0,1.75688 v 1.22899 h 1.012 c 0.25922,0 0.45262,-0.0538 0.58017,-0.16137 0.13166,-0.1076 0.19754,-0.25862 0.19754,-0.45313 0,-0.19451 -0.0659,-0.34552 -0.19754,-0.45312 -0.12755,-0.10759 -0.32094,-0.16137 -0.58017,-0.16137 z" />
  </g>
</svg>
